<svg width="117" height="35" viewBox="0 0 117 35" fill="none" xmlns="http://www.w3.org/2000/svg">
<g clip-path="url(#clip0_411_128)">
<path d="M74.8156 3.93311H60.5395C57.6771 3.93311 55.3872 4.82181 53.7234 6.59923C52.1849 8.22538 51.4335 10.173 51.4335 12.4609C51.4335 14.7867 52.2028 16.7343 53.7234 18.3604C55.405 20.1379 57.6771 21.0266 60.5395 21.0266H70.1284C71.828 21.0266 73.1876 21.4615 74.2073 22.3124C75.0839 23.1065 75.5491 24.0709 75.5491 25.2054C75.5491 26.3777 75.1018 27.361 74.1537 28.193C73.1518 29.0817 71.8101 29.5355 70.1284 29.5355H48.9468H47.8018H28.9817V21.8964H47.6408V16.5074H28.9817V9.32208H48.9647V3.93311H28.9817H23.9009H23.6505V25.1676L5.09862 5.52144C4.11468 4.46255 3.14862 3.93311 2.20046 3.93311C1.53853 3.93311 1.01972 4.19783 0.626147 4.67054C0.214679 5.14326 0 5.80507 0 6.63705V34.8866H5.09862V13.4253L23.8651 33.3739C24.7954 34.3572 26.1372 34.9434 27.1927 34.811C27.4431 34.8677 27.7115 34.8866 27.9798 34.8866C34.9927 35.1325 41.9339 34.8866 48.9289 34.8866H70.1284C73.2771 34.8866 75.7995 33.9034 77.6601 31.918C79.3239 30.1406 80.1289 27.9472 80.1289 25.3377C80.1289 22.7094 79.2881 20.4782 77.6064 18.663C75.7459 16.6397 73.2234 15.6376 70.1106 15.6376H60.5216C59.4303 15.6376 58.5358 15.3161 57.8917 14.6543C57.3193 14.0682 57.033 13.3685 57.033 12.4798C57.033 11.6289 57.3372 10.8915 57.9633 10.2486C58.5895 9.62462 59.4482 9.32208 60.5216 9.32208H74.7977H82.6514H86.3904V34.8866H91.489V9.32208H103.028V3.93311H82.6514H74.8156Z" fill="#1BB6B7"/>
<path d="M112.241 0C109.611 0 107.465 2.25014 107.465 5.02971C107.465 7.80929 109.594 10.0594 112.241 10.0594C114.871 10.0594 117 7.80929 117 5.02971C117 2.25014 114.871 0 112.241 0ZM112.241 9.64344C109.826 9.64344 107.876 7.58239 107.876 5.02971C107.876 2.47704 109.826 0.415991 112.241 0.415991C114.656 0.415991 116.606 2.47704 116.606 5.02971C116.606 7.58239 114.638 9.64344 112.241 9.64344Z" fill="#1BB6B7"/>
<path d="M114.155 4.72709C114.46 4.48128 114.603 4.1031 114.603 3.64929C114.603 3.04421 114.388 2.60931 113.941 2.34459C113.493 2.07987 112.921 1.94751 112.205 1.94751H109.987V7.99829H110.971V5.35108H112.152L113.744 7.99829H114.835L113.136 5.23762C113.511 5.14308 113.851 4.9729 114.155 4.72709ZM110.953 4.67036V2.55259H111.955C112.545 2.55259 112.957 2.64713 113.225 2.83622C113.476 3.02531 113.619 3.29003 113.619 3.63038C113.619 4.00856 113.476 4.29219 113.207 4.44346C112.939 4.59473 112.617 4.67036 112.241 4.67036H110.953Z" fill="#1BB6B7"/>
</g>
<defs>
<clipPath id="clip0_411_128">
<rect width="117" height="35" fill="white"/>
</clipPath>
</defs>
</svg>
